<svg xmlns="http://www.w3.org/2000/svg" xmlns:xlink="http://www.w3.org/1999/xlink" width="40" height="40" viewBox="0 0 40 40">
  <defs>
    <clipPath id="clip-path">
      <circle id="Ellipse_726" data-name="Ellipse 726" cx="20" cy="20" r="20" transform="translate(70 12)" fill="#fff" stroke="#707070" stroke-width="1"/>
    </clipPath>
  </defs>
  <g id="icon" transform="translate(-70 -12)" clip-path="url(#clip-path)">
    <path id="path" d="M23.1,11.874c.445.383.864.8,1.324,1.169a7.609,7.609,0,0,0,3.941,1.738.894.894,0,0,1-.631.145,5.669,5.669,0,0,1-4.06-2.069,3.086,3.086,0,0,1-.574-.983Zm1.893-.346c.455.274.791.708,1.251.983.434.254.952.321,1.365.61a2.08,2.08,0,0,1-1.153-.036,2.891,2.891,0,0,1-1.205-.77.948.948,0,0,1-.259-.786ZM12.742,25.74q4.988-3.483,9.971-6.967c.522.595.91,1.292,1.4,1.914a1.961,1.961,0,0,1,.445.734c.036,4.034.062,8.068.1,12.1a7.751,7.751,0,0,0,1.034-.7q1.8-1.3,3.6-2.617v3.946q-3.406,2.4-6.816,4.789c-.564-.786-1.091-1.6-1.686-2.369a.566.566,0,0,1-.123-.3q-.155-6.028-.305-12.055a7.439,7.439,0,0,0-3.082,3.207,7.868,7.868,0,0,0-.662,3.884Q14.681,28.514,12.742,25.74ZM28.526,9.64a1.674,1.674,0,0,0,.548-.114c.088.429.171.864.233,1.3a.823.823,0,0,0-.626.346c-.046-.512-.1-1.024-.155-1.536ZM17.738,8.973q2.692-2.087,5.389-4.184a9.386,9.386,0,0,0,1.039.367c1.091.357,2.167.734,3.258,1.086.708.248,1.427.45,2.131.714-.3.274-.636.491-.946.745a3.515,3.515,0,0,0,.155,1.039c.046.165.238.248.264.424a.329.329,0,0,1-.455.29.277.277,0,0,1-.176-.295c.026-.109.092-.2.124-.31a9.307,9.307,0,0,0-.145-.926,4.848,4.848,0,0,0-.931.822c.036.305.083.605.124.91a4.9,4.9,0,0,0-6.987,1.371c-.088-.357-.171-.714-.259-1.065-.864-.326-1.722-.657-2.586-.988m5.88-1.588a6.953,6.953,0,0,0-2.783,1.036,1.1,1.1,0,0,0-.579.781c.217-.109.346-.321.548-.45A7.641,7.641,0,0,1,23.98,7.7a6.4,6.4,0,0,1,2.151-.021,6.628,6.628,0,0,1,1.133.336.688.688,0,0,0-.486-.434,6.123,6.123,0,0,0-3.16-.2Zm3.527,11.388c.227.109.455.29.74.45.859.59,1.655,1.226,2.514,1.826,2.281,1.562,4.51,3.129,6.734,4.691-1.314,1.852-2.622,3.714-3.879,5.56a7.9,7.9,0,0,0-.574-3.636,7.381,7.381,0,0,0-3.139-3.455c-.114,1.691-.114,3.382-.171,5.079-1.371.977-2.736,1.961-4.163,2.943.057-3.584.057-7.173.114-10.757,0-.155.114-.264.171-.388a22.323,22.323,0,0,1,1.653-2.311Zm-4.909-6.108c.341.331.683.678,1.081,1.014a10.287,10.287,0,0,0,2.229,1.433,10.6,10.6,0,0,0,1.257.429,3.747,3.747,0,0,1,.854.264v.046a1.975,1.975,0,0,1-.8.01,7.238,7.238,0,0,1-2.684-.854A3.754,3.754,0,0,1,22.237,12.666ZM28.4,11.285a3.293,3.293,0,0,1,1.024,2.12,5.24,5.24,0,0,1-.626,2.922,4.868,4.868,0,0,1-2.229,1.924,4.08,4.08,0,0,1-2.736.208,5.573,5.573,0,0,1-2.514-1.433A9.55,9.55,0,0,0,23.663,18a4.314,4.314,0,0,0,2.907-.3,4.493,4.493,0,0,0,2-2.332,6.084,6.084,0,0,0,.4-2.017,12.874,12.874,0,0,0-.567-2.069ZM24.177,9.251a3.223,3.223,0,0,1,1.143.041,5.264,5.264,0,0,1,1.195.362,1.982,1.982,0,0,1,.8.672,17.114,17.114,0,0,0-1.655-.538,3.6,3.6,0,0,0-2.514.341,4.23,4.23,0,0,0-2.11,3.58,3.276,3.276,0,0,0,.8,2.261,4.828,4.828,0,0,0,2.115,1.319,3.222,3.222,0,0,0,2.167-.2,3.961,3.961,0,0,0,1.086-.776,1.889,1.889,0,0,1-.455.729,2.134,2.134,0,0,1-1.029.719,3.779,3.779,0,0,1-2.053.092,4.231,4.231,0,0,1-1.712-.719,4.378,4.378,0,0,1-1.541-2.348A4.608,4.608,0,0,1,21.606,10.4a4.24,4.24,0,0,1,2.571-1.144ZM20.753,1.568A24.671,24.671,0,0,1,24.347.952a13.352,13.352,0,0,1,6.108,1.17A12.246,12.246,0,0,1,34.68,5.239,17.294,17.294,0,0,1,38.5,11.745a12.357,12.357,0,0,1,.626,3.517,12.833,12.833,0,0,1-.512,3.915c-.114.383-.284.729-.4,1.1a7.733,7.733,0,0,1,.227-1.112,9.817,9.817,0,0,0,.171-1.82,5.149,5.149,0,0,0-.114-1.867,15.519,15.519,0,0,0-.74-3.232,14.981,14.981,0,0,0-2.741-4.422A12.951,12.951,0,0,0,28.857,4.01a13.912,13.912,0,0,0-4.112-.548,13.2,13.2,0,0,0-2.621.366,13.681,13.681,0,0,0-2.344.827A15.474,15.474,0,0,0,15.5,7.587a12.651,12.651,0,0,0-3.843,9.537,1.248,1.248,0,0,1-.134.962,3.73,3.73,0,0,1-1.4.807,10,10,0,0,1-.409-2.959,14.531,14.531,0,0,1,1.246-5.854A15.511,15.511,0,0,1,17.9,2.7a14.5,14.5,0,0,1,2.855-1.136Z" transform="translate(65.576 12.062)" fill="#fff"/>
  </g>
</svg>
