<svg xmlns="http://www.w3.org/2000/svg" width="64.213" height="49.307" viewBox="0 0 64.213 49.307">
  <g id="Group_25998" data-name="Group 25998" transform="translate(-146.914 -129.312)">
    <g id="Group_25995" data-name="Group 25995" transform="translate(146.914 129.312)">
      <path id="Path_74272" data-name="Path 74272" d="M211.127,184.093H146.914V140.649L147.6,139h62.835l.689,1.962Z" transform="translate(-146.914 -134.786)" fill="#f59a3d"/>
      <rect id="Rectangle_12758" data-name="Rectangle 12758" width="62.835" height="44.127" transform="translate(0.689 4.211)" fill="#ffcd40"/>
      <path id="Path_74273" data-name="Path 74273" d="M209.609,132.192,182.8,136.329l-27.028-4.137-2.174,5.577v39.877s22.087-4.986,29.2-1.08c7.115-3.906,29.2,1.08,29.2,1.08V137.769Z" transform="translate(-150.69 -130.94)" fill="#dbd9bf"/>
      <path id="Path_74274" data-name="Path 74274" d="M185.241,133.523c-9.021-6.252-17.739-3.975-26.7-2.959.13,14.377-.13,28.019,0,42.4,11.691-5.483,26.827,1.24,26.827,1.24s14.768-7.145,27.25-1.028c.13-14.377-.553-28.23-.422-42.607C202.5,129.463,194.685,127.8,185.241,133.523Z" transform="translate(-153.467 -129.312)" fill="#fbf8d8"/>
    </g>
    <g id="Group_25996" data-name="Group 25996" transform="translate(181.566 136.352)">
      <path id="Path_74275" data-name="Path 74275" d="M226.612,147.695s10.639-4.275,20.1-.884" transform="translate(-226.612 -145.503)" fill="none" stroke="#abadad" stroke-linecap="round" stroke-linejoin="round" stroke-width="1.405"/>
      <path id="Path_74276" data-name="Path 74276" d="M226.612,160.779s10.639-4.275,20.1-.884" transform="translate(-226.612 -152.898)" fill="none" stroke="#abadad" stroke-linecap="round" stroke-linejoin="round" stroke-width="1.405"/>
      <path id="Path_74277" data-name="Path 74277" d="M226.612,173.863s10.639-4.276,20.1-.885" transform="translate(-226.612 -160.293)" fill="none" stroke="#abadad" stroke-linecap="round" stroke-linejoin="round" stroke-width="1.405"/>
      <path id="Path_74278" data-name="Path 74278" d="M226.612,186.947s10.639-4.275,20.1-.884" transform="translate(-226.612 -167.689)" fill="none" stroke="#abadad" stroke-linecap="round" stroke-linejoin="round" stroke-width="1.405"/>
      <path id="Path_74279" data-name="Path 74279" d="M226.612,200.03s10.639-4.275,20.1-.884" transform="translate(-226.612 -175.084)" fill="none" stroke="#abadad" stroke-linecap="round" stroke-linejoin="round" stroke-width="1.405"/>
      <path id="Path_74280" data-name="Path 74280" d="M226.612,213.114s10.639-4.276,20.1-.885" transform="translate(-226.612 -182.478)" fill="none" stroke="#abadad" stroke-linecap="round" stroke-linejoin="round" stroke-width="1.405"/>
    </g>
    <g id="Group_25997" data-name="Group 25997" transform="translate(156.215 136.352)">
      <path id="Path_74281" data-name="Path 74281" d="M188.407,147.695s-10.641-4.275-20.1-.884" transform="translate(-168.305 -145.503)" fill="none" stroke="#abadad" stroke-linecap="round" stroke-linejoin="round" stroke-width="1.405"/>
      <path id="Path_74282" data-name="Path 74282" d="M188.407,160.779s-10.641-4.275-20.1-.884" transform="translate(-168.305 -152.898)" fill="none" stroke="#abadad" stroke-linecap="round" stroke-linejoin="round" stroke-width="1.405"/>
      <path id="Path_74283" data-name="Path 74283" d="M188.407,173.863s-10.641-4.276-20.1-.885" transform="translate(-168.305 -160.293)" fill="none" stroke="#abadad" stroke-linecap="round" stroke-linejoin="round" stroke-width="1.405"/>
      <path id="Path_74284" data-name="Path 74284" d="M188.407,186.947s-10.641-4.275-20.1-.884" transform="translate(-168.305 -167.689)" fill="none" stroke="#abadad" stroke-linecap="round" stroke-linejoin="round" stroke-width="1.405"/>
      <path id="Path_74285" data-name="Path 74285" d="M188.407,200.03s-10.641-4.275-20.1-.884" transform="translate(-168.305 -175.084)" fill="none" stroke="#abadad" stroke-linecap="round" stroke-linejoin="round" stroke-width="1.405"/>
      <path id="Path_74286" data-name="Path 74286" d="M188.407,213.114s-10.641-4.276-20.1-.885" transform="translate(-168.305 -182.478)" fill="none" stroke="#abadad" stroke-linecap="round" stroke-linejoin="round" stroke-width="1.405"/>
    </g>
  </g>
</svg>
