<svg xmlns="http://www.w3.org/2000/svg" width="113.232" height="64.232" viewBox="0 0 113.232 64.232">
  <g id="Group_25994" data-name="Group 25994" transform="translate(-439.502 -427.733)">
    <g id="Group_25990" data-name="Group 25990" transform="translate(460.366 427.733)">
      <path id="Path_74249" data-name="Path 74249" d="M530.349,447.753a19.8,19.8,0,0,0-19.563-20.02,19.4,19.4,0,0,0-16.652,9.56,19.442,19.442,0,0,0-16.665-9.56,19.791,19.791,0,0,0-19.557,20.02,20.149,20.149,0,0,0,6.715,15.079l27.724,28.373a2.472,2.472,0,0,0,1.783.76,2.512,2.512,0,0,0,1.784-.76l27.71-28.373a20.151,20.151,0,0,0,6.721-15.079Z" transform="translate(-457.912 -427.733)" fill="#dc0000"/>
    </g>
    <g id="Group_25993" data-name="Group 25993" transform="translate(439.502 442.233)">
      <g id="Group_25991" data-name="Group 25991">
        <path id="Path_74250" data-name="Path 74250" d="M439.5,480.964s13.662,0,22.324-2.261c0,0,17.517.188,21.284-2.449,0,0,10.946-1.6,13.008-2.731,0,0,5.356-1.788,6.206-2.825s5.862-1.6,7.651-5.839c0,0,1.928-.425,1.887-3.008,0,0-.791-1.781-3.924-.979,0,0-.388-3.007-11.124-1.311,0,0-5.979-.707-8.145.437l-6.881.018s-4.381-2.552-4.514-3.915l.376-1.225s9.795-5.462,7.534-12.243a2.525,2.525,0,0,0-3.485-1.883s-6.686,6.874-8.758,8c0,0-11.4,5.273-12.9,10.359,0,0-.47,4.238-5.556,3.485l-14.98-.658Z" transform="translate(-439.502 -440.528)" fill="#eeac6d"/>
        <path id="Path_74251" data-name="Path 74251" d="M503.711,462.607s-.188-3.6-6.523-.661c0,0-4.7,2.749-7.316,2.821,0,0,4.7-.912,5.2,1.7,0,0-.186,2.26-1.245,2.807l2.44-1.691S503.592,465.359,503.711,462.607Z" transform="translate(-432.789 -437.827)" fill="#e29e66"/>
        <path id="Path_74252" data-name="Path 74252" d="M502.521,458.569s-2.765-1.6-7.922-.148a40.836,40.836,0,0,1-5.437.838s-5.392.024-6.428,1.673l-2.591-1.013a34.1,34.1,0,0,0,2.8,2.425s5.607-1.006,7.162-.774a21.4,21.4,0,0,1,2.584.491c.142.138,3.42-1.694,5.6-1.411A12.283,12.283,0,0,1,502.521,458.569Z" transform="translate(-434.086 -438.224)" fill="#d89761"/>
        <path id="Path_74253" data-name="Path 74253" d="M481.252,443.881s0,3.674-2.22,5.839a22.7,22.7,0,0,1-5.241,4.71s1.6,4.219,4.44,5.122c0,0-3.194.622-5.994-4.557,0,0-.93-1.32,0-2.261C472.237,452.734,479.21,448.684,481.252,443.881Z" transform="translate(-435.194 -440.081)" fill="#d89761"/>
        <path id="Path_74254" data-name="Path 74254" d="M454.659,464.533c.129-.177-2.776,6.793.512,9.934C455.171,474.468,449.4,471.765,454.659,464.533Z" transform="translate(-437.777 -437.329)" fill="#d89761"/>
        <path id="Path_74255" data-name="Path 74255" d="M468.874,449.166s-7.911,3.625-10.384,8.46c0,0-2.377,4.9-5.437,4.254,0,0,3.568,1.142,8.463-4.226,0,0,9.561-10,11.539-11.031Z" transform="translate(-437.696 -439.715)" fill="#ffbd7d"/>
        <path id="Path_74256" data-name="Path 74256" d="M502.8,461.149s-2.857-2.731-8.265,1.639c0,0-4.974,2.032-6.482,2.467a16.65,16.65,0,0,0,7.048-2.124S499.762,460.937,502.8,461.149Z" transform="translate(-433.032 -437.892)" fill="#ffbd7d"/>
        <path id="Path_74257" data-name="Path 74257" d="M506.337,459.285s-1.108-3.358-8.042,1.323a8.524,8.524,0,0,0-5.6,1.411s-5.322-1.575-9.746.283h0l-2.8-2.425,1.177,3.2h3.673s6.5-.921,7.7-.5c0,0,3.893-1.818,5.415-1.293C498.107,461.291,500.4,458.362,506.337,459.285Z" transform="translate(-434.086 -438.183)" fill="#ffbd7d"/>
        <path id="Path_74258" data-name="Path 74258" d="M496.366,467.161s-.35,2.2-5.613,2.927c0,0-11.687,3.324-12.771,2.617,0,0,11.935-2.684,13.008-4.05C490.99,468.655,495.885,469.035,496.366,467.161Z" transform="translate(-434.374 -436.978)" fill="#d89761"/>
        <path id="Path_74259" data-name="Path 74259" d="M495.363,464.745s-6.064-.291-9.972,2.583a15.842,15.842,0,0,0-4.251,1.684,6.815,6.815,0,0,1,3.485-2.166s2.457-2.379,8.253-2.71A5.038,5.038,0,0,1,495.363,464.745Z" transform="translate(-433.953 -437.381)" fill="#ffbd7d"/>
        <path id="Path_74260" data-name="Path 74260" d="M482.1,472.053s-2.682,3.721-21.284,2.449c0,0-10.129,2.17-13.728,1.933l12.788-2.97S477.134,474.55,482.1,472.053Z" transform="translate(-438.491 -436.326)" fill="#d89761"/>
      </g>
      <g id="Group_25992" data-name="Group 25992" transform="translate(46.281 0.505)">
        <path id="Path_74261" data-name="Path 74261" d="M504.564,460.014s-.849-5.27-9.078,1.758c0,0,3.609-1.164,4.718-1.022,0,0,2.18.141,2.134,1.906C502.338,462.656,504.587,461.917,504.564,460.014Z" transform="translate(-478.322 -438.688)" fill="#e29e66"/>
        <path id="Path_74262" data-name="Path 74262" d="M547.292,486.272s-13.775-3.862-19.333-7.158c0,0-6.969,1.048-10.264-7.2a46.046,46.046,0,0,0-8.76-11.861s-3.905-1.471-5.108-2.977a16.221,16.221,0,0,1-5.766-.849s-5.324.67-7.961-1.313c0,0-4.331,1.136-6.027,0,0,0-2.637-1.512-1.507-3.489,0,0-3.109-1.224-1.978-3.579a5.78,5.78,0,0,1,4.427-.471,11.8,11.8,0,0,1,4.709-1.412s-5.179-.848-4.238-3.955c0,0,14.033-.565,15.445-1.036,0,0,11.865,4.615,15.728,5.179,0,0,2.543.848,5.273,6.874,0,0,7.535,10.738,12.244,12.338,0,0,12.295,3.3,13.117,2.308Z" transform="translate(-480.34 -440.973)" fill="#eeac6d"/>
        <path id="Path_74263" data-name="Path 74263" d="M510.419,453.888s-5.415-2.97-6.591-3.4c0,0-9.183,1.38-14.835.456,0,0,14.223-.878,14.835-1.208C503.828,449.74,508.677,452.008,510.419,453.888Z" transform="translate(-479.187 -439.805)" fill="#d89761"/>
        <path id="Path_74264" data-name="Path 74264" d="M482.3,450.632s7.549-.537,8.58-1c0,0,10.43-2.5,9-2.509-.235,0,1.84-.746,9.268,2.435a3.887,3.887,0,0,0,1.6-.371,16.26,16.26,0,0,1-2.4-.348s-5.461-2.86-8.381-2.2c0,0-8.429,1.717-10.078,2.234C489.885,448.868,483.185,450.484,482.3,450.632Z" transform="translate(-480.079 -440.232)" fill="#d89761"/>
        <path id="Path_74265" data-name="Path 74265" d="M504.384,444.761s-4.333-1.272-5.18-1.366c0,0-1.789-.191-10.077,2.447,0,0-4.944-.8-4.238-3.955,0,0,2.213,2.968,4.661,2.685,0,0,8.289-1.788,9.56-1.884A19.448,19.448,0,0,1,504.384,444.761Z" transform="translate(-479.743 -440.851)" fill="#d89761"/>
        <path id="Path_74266" data-name="Path 74266" d="M480.586,447.039s.69,2.365,3.956,2.45c0,0,10.876-2.167,13.317-2.331l-15.3,3.46S479.5,449.438,480.586,447.039Z" transform="translate(-480.339 -440.165)" fill="#d89761"/>
        <path id="Path_74267" data-name="Path 74267" d="M482.337,450.15s-2.724,5.538,7.541,3.543c0,0,2.877,2.021,7.961,1.313,0,0-7.443-1.222-7.915-2.354C489.924,452.652,482.214,454.23,482.337,450.15Z" transform="translate(-480.118 -439.75)" fill="#d89761"/>
        <path id="Path_74268" data-name="Path 74268" d="M516.535,447.548a11.579,11.579,0,0,0-4.992,0s-9.135-3.2-11.159-3.342c0,0-3.485-.388-10.547,2.773,0,0-3.624.334-4.45.852,0,0-4.356-.567-4.827-.283a5.48,5.48,0,0,1,4.427-.471,12.1,12.1,0,0,1,4.709-1.412s7.648-2.3,9.8-2.443a21.824,21.824,0,0,1,5.461,1.362S516.066,447.076,516.535,447.548Z" transform="translate(-480.311 -440.673)" fill="#ffbd7d"/>
        <path id="Path_74269" data-name="Path 74269" d="M515.011,451.813s-2.99-.717-4.449-.247c0,0-7.674-3.391-10.453-3.437,0,0-9.513,1.325-10.42,1.51,0,0,8.73-2.473,9.575-2.651a23.074,23.074,0,0,1,8.9,2.507l1.6-.371S514.023,450.824,515.011,451.813Z" transform="translate(-479.095 -440.171)" fill="#ffbd7d"/>
        <path id="Path_74270" data-name="Path 74270" d="M510.421,463.5s2.712,4.255,3.338,5.593c0,0,2.964,7.911,10.192,7.016a21.789,21.789,0,0,1-8.664-7.535S512.2,464.08,510.421,463.5Z" transform="translate(-476.331 -437.97)" fill="#e29e66"/>
        <path id="Path_74271" data-name="Path 74271" d="M523.675,459.516A23.976,23.976,0,0,0,541.375,471l.142-5.8S530.251,464.9,523.675,459.516Z" transform="translate(-474.565 -438.502)" fill="#ffbd7d"/>
      </g>
    </g>
  </g>
</svg>
