<svg xmlns="http://www.w3.org/2000/svg" width="45.597" height="66.013" viewBox="0 0 45.597 66.013">
  <g id="Group_26016" data-name="Group 26016" transform="translate(-281.371 -37.259)">
    <g id="Group_26000" data-name="Group 26000" transform="translate(284.368 47.166)">
      <g id="Group_25999" data-name="Group 25999" transform="translate(0 0)">
        <path id="Path_74287" data-name="Path 74287" d="M287.374,95.76a19.8,19.8,0,1,1,35.806,11.66h0c-2.827,4.259-10.171,9.068-10.171,11.949v3.291a1.19,1.19,0,0,1-1.19,1.19h-9.289a1.19,1.19,0,0,1-1.19-1.19v-3.291c0-2.881-7.344-7.69-10.171-11.949h0A19.71,19.71,0,0,1,287.374,95.76Z" transform="translate(-287.374 -75.959)" fill="#fdd305"/>
      </g>
    </g>
    <g id="Group_26001" data-name="Group 26001" transform="translate(292.255 67.256)">
      <path id="Path_74288" data-name="Path 74288" d="M336.441,192.337a129.606,129.606,0,0,1,.259-15.411,22.294,22.294,0,0,1-5.015,0,129.564,129.564,0,0,1,.259,15.411l-.349-.016a132.713,132.713,0,0,0-.278-15.443c-5.873-.817-8.5-4.144-8.974-7.284-.276-1.835.351-3.662,1.49-4.343a2.993,2.993,0,0,1,2.415-.242,6.2,6.2,0,0,1,3.556,3.224c.956,1.868,1.521,4.969,1.847,8.336a21.815,21.815,0,0,0,5.082,0c.326-3.367.891-6.468,1.847-8.336a6.2,6.2,0,0,1,3.556-3.224,2.994,2.994,0,0,1,2.415.242c1.139.681,1.766,2.508,1.49,4.343-.472,3.14-3.1,6.467-8.974,7.284a132.742,132.742,0,0,0-.278,15.443Zm6.675-27.122a3.2,3.2,0,0,0-.883.13,5.849,5.849,0,0,0-3.341,3.047c-.919,1.8-1.469,4.822-1.79,8.128,5.626-.811,8.144-3.983,8.594-6.978.251-1.674-.318-3.389-1.324-3.991A2.417,2.417,0,0,0,343.115,165.215Zm-17.847,0a2.418,2.418,0,0,0-1.256.336c-1.006.6-1.576,2.317-1.324,3.991.45,2.995,2.968,6.167,8.594,6.978-.321-3.306-.87-6.331-1.79-8.128a5.848,5.848,0,0,0-3.341-3.047A3.2,3.2,0,0,0,325.269,165.215Z" transform="translate(-322.278 -164.864)" fill="#fff"/>
    </g>
    <g id="Group_26002" data-name="Group 26002" transform="translate(307.096 49.829)">
      <path id="Path_74289" data-name="Path 74289" d="M401.53,106.021a1.136,1.136,0,0,1-1.136-1.136,15.349,15.349,0,0,0-11.584-14.9,1.136,1.136,0,1,1,.557-2.2,17.619,17.619,0,0,1,13.3,17.1A1.136,1.136,0,0,1,401.53,106.021Z" transform="translate(-387.952 -87.747)" fill="#fe9"/>
    </g>
    <g id="Group_26003" data-name="Group 26003" transform="translate(303.788 49.295)">
      <path id="Path_74290" data-name="Path 74290" d="M373.312,86.518a1.136,1.136,0,1,0,1.136-1.136A1.136,1.136,0,0,0,373.312,86.518Z" transform="translate(-373.312 -85.382)" fill="#fe9"/>
    </g>
    <g id="Group_26006" data-name="Group 26006" transform="translate(284.406 68.138)" opacity="0.55" style="mix-blend-mode: multiply;isolation: isolate">
      <g id="Group_26005" data-name="Group 26005">
        <g id="Group_26004" data-name="Group 26004">
          <path id="Path_74291" data-name="Path 74291" d="M327.07,168.765c-1.093,8.119-7.648,16.525-19.763,16.525s-18.426-8.8-19.764-16.525a19.7,19.7,0,0,0,3.759,10.489h0c2.827,4.259,10.171,9.068,10.171,11.949v3.291a1.19,1.19,0,0,0,1.19,1.19h9.289a1.19,1.19,0,0,0,1.19-1.19V191.2c0-2.881,7.344-7.69,10.171-11.949h0A19.7,19.7,0,0,0,327.07,168.765Z" transform="translate(-287.543 -168.765)" fill="#ffc043"/>
        </g>
      </g>
    </g>
    <g id="Group_26007" data-name="Group 26007" transform="translate(297.867 91.981)">
      <path id="Path_74292" data-name="Path 74292" d="M359.716,274.276h-12.6v6.007a5.168,5.168,0,0,0,.8,2.77h0a5.417,5.417,0,0,0,4.573,2.514h1.848a5.417,5.417,0,0,0,4.573-2.514h0a5.168,5.168,0,0,0,.8-2.77Z" transform="translate(-347.112 -274.276)" fill="#28364c"/>
    </g>
    <g id="Group_26009" data-name="Group 26009" transform="translate(297.081 93.152)">
      <g id="Group_26008" data-name="Group 26008" transform="translate(0)">
        <path id="Path_74293" data-name="Path 74293" d="M344.417,282.336a.8.8,0,0,0,.109,0l12.6-1.307a.755.755,0,0,0,.671-.864.819.819,0,0,0-.887-.7l-12.6,1.306a.756.756,0,0,0-.671.864A.822.822,0,0,0,344.417,282.336Z" transform="translate(-343.632 -279.456)" fill="#475577"/>
      </g>
    </g>
    <g id="Group_26011" data-name="Group 26011" transform="translate(297.081 95.901)">
      <g id="Group_26010" data-name="Group 26010" transform="translate(0 0)">
        <path id="Path_74294" data-name="Path 74294" d="M344.417,294.5a.806.806,0,0,0,.109,0l12.6-1.307a.755.755,0,0,0,.671-.864.82.82,0,0,0-.887-.7l-12.6,1.307a.755.755,0,0,0-.671.863A.822.822,0,0,0,344.417,294.5Z" transform="translate(-343.632 -291.623)" fill="#475577"/>
      </g>
    </g>
    <g id="Group_26013" data-name="Group 26013" transform="translate(297.584 98.69)">
      <g id="Group_26012" data-name="Group 26012" transform="translate(0)">
        <path id="Path_74295" data-name="Path 74295" d="M346.645,306.777a.764.764,0,0,0,.109,0l11.947-1.239a.755.755,0,0,0,.671-.863.82.82,0,0,0-.887-.7l-11.947,1.239a.755.755,0,0,0-.671.864A.822.822,0,0,0,346.645,306.777Z" transform="translate(-345.86 -303.965)" fill="#475577"/>
      </g>
    </g>
    <g id="Group_26015" data-name="Group 26015" transform="translate(283.49 38.759)">
      <line id="Line_1269" data-name="Line 1269" y2="6.223" transform="translate(20.679 0)" fill="#ffcd5c" stroke="#ffc043" stroke-linecap="round" stroke-linejoin="round" stroke-width="3"/>
      <g id="Group_26014" data-name="Group 26014" transform="translate(0 2.478)">
        <line id="Line_1270" data-name="Line 1270" x1="2.513" y2="5.692" transform="translate(29.388)" fill="#ffcd5c" stroke="#ffc043" stroke-linecap="round" stroke-linejoin="round" stroke-width="3"/>
        <line id="Line_1271" data-name="Line 1271" x1="4.598" y2="4.193" transform="translate(36.761 6.885)" fill="#ffcd5c" stroke="#ffc043" stroke-linecap="round" stroke-linejoin="round" stroke-width="3"/>
        <line id="Line_1272" data-name="Line 1272" x2="2.513" y2="5.692" transform="translate(9.458)" fill="#ffcd5c" stroke="#ffc043" stroke-linecap="round" stroke-linejoin="round" stroke-width="3"/>
        <line id="Line_1273" data-name="Line 1273" x2="4.598" y2="4.193" transform="translate(0 6.885)" fill="#ffcd5c" stroke="#ffc043" stroke-linecap="round" stroke-linejoin="round" stroke-width="3"/>
      </g>
    </g>
  </g>
</svg>
