<svg xmlns="http://www.w3.org/2000/svg" xmlns:xlink="http://www.w3.org/1999/xlink" width="48" height="48" viewBox="0 0 48 48">
  <defs>
    <linearGradient id="linear-gradient" x1="0.146" y1="0.146" x2="0.854" y2="0.854" gradientUnits="objectBoundingBox">
      <stop offset="0" stop-color="#33bef0"/>
      <stop offset="1" stop-color="#0a85d9"/>
    </linearGradient>
  </defs>
  <g id="telegram" transform="translate(-4 -4)">
    <path id="Path_11048" data-name="Path 11048" d="M52,28A24,24,0,1,1,28,4,24,24,0,0,1,52,28Z" fill="url(#linear-gradient)"/>
    <path id="Path_11051" data-name="Path 11051" d="M12.012,26.156c9.087-4,20.846-8.871,22.469-9.546,4.257-1.765,5.564-1.427,4.913,2.483C38.926,21.9,37.577,31.207,36.5,37c-.638,3.435-2.071,3.842-4.323,2.356-1.083-.715-6.549-4.33-7.736-5.179-1.083-.774-2.577-1.7-.7-3.537.667-.653,5.036-4.826,8.441-8.073a.5.5,0,0,0-.629-.785C26.961,24.823,20.6,29.047,19.789,29.6a4.711,4.711,0,0,1-4.507.606c-1.594-.458-3.15-1-3.756-1.212C9.192,28.19,9.746,27.153,12.012,26.156Z" transform="translate(0.413 1.279)" fill="#fff"/>
  </g>
</svg>
