<svg xmlns="http://www.w3.org/2000/svg" width="48" height="48" viewBox="0 0 48 48">
  <g id="whatsapp" transform="translate(-845 -5656)">
    <path id="_5279121_call_chat_messenger_whatsapp_whatsapp_logo_icon" data-name="5279121_call_chat_messenger_whatsapp_whatsapp logo_icon" d="M24,0A24,24,0,1,1,0,24,24.011,24.011,0,0,1,24,0ZM35.393,12.642A15.219,15.219,0,0,0,11.442,31L9.283,38.88l8.067-2.115a15.211,15.211,0,0,0,7.272,1.852h.006A15.218,15.218,0,0,0,35.393,12.642ZM24.629,36.047h-.005a12.633,12.633,0,0,1-6.438-1.762l-.462-.274-4.787,1.255L14.215,30.6l-.3-.478a12.649,12.649,0,1,1,10.714,5.925Zm6.938-9.47c-.38-.19-2.25-1.11-2.6-1.237s-.6-.19-.855.19-.982,1.237-1.2,1.49-.444.285-.824.1a10.38,10.38,0,0,1-3.058-1.887A11.457,11.457,0,0,1,20.912,22.6c-.222-.381-.024-.586.167-.776.171-.17.38-.444.57-.666a2.6,2.6,0,0,0,.38-.634A.7.7,0,0,0,22,19.855c-.1-.19-.855-2.061-1.172-2.822-.309-.741-.622-.641-.855-.652s-.475-.013-.729-.013a1.4,1.4,0,0,0-1.014.476A4.263,4.263,0,0,0,16.9,20.013a7.393,7.393,0,0,0,1.553,3.932c.19.254,2.681,4.093,6.5,5.739a21.882,21.882,0,0,0,2.168.8,5.215,5.215,0,0,0,2.395.151,3.916,3.916,0,0,0,2.566-1.807,3.178,3.178,0,0,0,.222-1.807c-.1-.159-.349-.254-.729-.444Z" transform="translate(845 5656)" fill="#2ab200" fill-rule="evenodd"/>
    <path id="_5279121_call_chat_messenger_whatsapp_whatsapp_logo_icon-2" data-name="5279121_call_chat_messenger_whatsapp_whatsapp logo_icon" d="M35.393,12.642A15.219,15.219,0,0,0,11.442,31L9.283,38.88l8.067-2.115a15.211,15.211,0,0,0,7.272,1.852h.006A15.218,15.218,0,0,0,35.393,12.642ZM24.629,36.047h-.005a12.633,12.633,0,0,1-6.438-1.762l-.462-.274-4.787,1.255L14.215,30.6l-.3-.478a12.649,12.649,0,1,1,10.714,5.925Zm6.938-9.47c-.38-.19-2.25-1.11-2.6-1.237s-.6-.19-.855.19-.982,1.237-1.2,1.49-.444.285-.824.1a10.38,10.38,0,0,1-3.058-1.887A11.457,11.457,0,0,1,20.912,22.6c-.222-.381-.024-.586.167-.776.171-.17.38-.444.57-.666a2.6,2.6,0,0,0,.38-.634A.7.7,0,0,0,22,19.855c-.1-.19-.855-2.061-1.172-2.822-.309-.741-.622-.641-.855-.652s-.475-.013-.729-.013a1.4,1.4,0,0,0-1.014.476A4.263,4.263,0,0,0,16.9,20.013a7.393,7.393,0,0,0,1.553,3.932c.19.254,2.681,4.093,6.5,5.739a21.882,21.882,0,0,0,2.168.8,5.215,5.215,0,0,0,2.395.151,3.916,3.916,0,0,0,2.566-1.807,3.178,3.178,0,0,0,.222-1.807c-.1-.159-.349-.254-.729-.444Z" transform="translate(845 5656)" fill="#fff" fill-rule="evenodd"/>
  </g>
</svg>
