<svg xmlns="http://www.w3.org/2000/svg" width="48" height="48" viewBox="0 0 48 48">
  <g id="youtube" transform="translate(-1129.503 -5656)">
    <path id="_5279120_play_video_youtube_youtuble_logo_icon" data-name="5279120_play_video_youtube_youtuble logo_icon" d="M24,0A24,24,0,1,1,0,24,24.011,24.011,0,0,1,24,0ZM38.373,16.779a3.757,3.757,0,0,0-2.652-2.652C33.381,13.5,24,13.5,24,13.5s-9.381,0-11.721.627a3.757,3.757,0,0,0-2.652,2.652A39.052,39.052,0,0,0,9,24a39.048,39.048,0,0,0,.627,7.221,3.757,3.757,0,0,0,2.652,2.652C14.619,34.5,24,34.5,24,34.5s9.381,0,11.721-.627a3.757,3.757,0,0,0,2.652-2.652A39.047,39.047,0,0,0,39,24a39.052,39.052,0,0,0-.627-7.221ZM20.114,29.087l.252-9.977L28.794,24l-8.68,5.086Z" transform="translate(1129.503 5656)" fill="red" fill-rule="evenodd"/>
    <path id="_5279120_play_video_youtube_youtuble_logo_icon-2" data-name="5279120_play_video_youtube_youtuble logo_icon" d="M38.373,16.779a3.757,3.757,0,0,0-2.652-2.652C33.381,13.5,24,13.5,24,13.5s-9.381,0-11.721.627a3.757,3.757,0,0,0-2.652,2.652A39.052,39.052,0,0,0,9,24a39.048,39.048,0,0,0,.627,7.221,3.757,3.757,0,0,0,2.652,2.652C14.619,34.5,24,34.5,24,34.5s9.381,0,11.721-.627a3.757,3.757,0,0,0,2.652-2.652A39.047,39.047,0,0,0,39,24a39.052,39.052,0,0,0-.627-7.221ZM20.114,29.087l.252-9.977L28.794,24l-8.68,5.086Z" transform="translate(1129.503 5656)" fill="#fff" fill-rule="evenodd"/>
  </g>
</svg>
